<svg xmlns="http://www.w3.org/2000/svg" xmlns:xlink="http://www.w3.org/1999/xlink" xmlns:svgjs="http://svgjs.com/svgjs" x="0" y="0" viewBox="0 0 64 64" style="enable-background:new 0 0 512 512" xml:space="preserve" class=""><g><g id="Truck_Delivery" data-name="Truck Delivery"><path d="m38.11 17h-25.46a2.03791 2.03791 0 0 0 -2.03 2.03v1.05h4.07a3.53 3.53 0 0 1 0 7.06005h-4.07v1.08h6.11a3.525 3.525 0 0 1 0 7.05h-6.11v5.12a2.03146 2.03146 0 0 0 2.03 2.03h1.55a6.11235 6.11235 0 0 1 12.18 0h13.77v-23.39005a2.04654 2.04654 0 0 0 -2.04-2.03z" fill="currentColor" data-original="#000000" class=""/><path d="m60 33.14916v8.25762a1.12353 1.12353 0 0 1 -1.20145 1.017h-2.89166a6.11066 6.11066 0 0 0 -12.17742 0h-1.54765v-19.322h7.0967a1.301 1.301 0 0 1 .896.33555l2.32385 2.20683h-3.02851a1.20018 1.20018 0 0 0 -1.179 1.22035v3.661a1.20022 1.20022 0 0 0 1.179 1.22035h9.45373c.4012.38091 1.07641.86169 1.07641 1.4033z" fill="currentColor" data-original="#000000" class=""/><path d="m20.29 38.86a4.07 4.07 0 1 0 4.07 4.07 4.0736 4.0736 0 0 0 -4.07-4.07z" fill="currentColor" data-original="#000000" class=""/><path d="m53.89091 42.9322a4.07273 4.07273 0 1 1 -4.07273-4.06779 4.06915 4.06915 0 0 1 4.07273 4.06779z" fill="currentColor" data-original="#000000" class=""/><path d="m16.73 30.22h-11.2a1.525 1.525 0 0 0 0 3.05h11.2a1.525 1.525 0 0 0 0-3.05z" fill="currentColor" data-original="#000000" class=""/><path d="m14.69 22.08h-7.13a1.5301 1.5301 0 0 0 0 3.06005h7.13a1.5301 1.5301 0 0 0 0-3.06005z" fill="currentColor" data-original="#000000" class=""/></g></g></svg>