<svg width="379" height="505" viewBox="0 0 379 505" fill="none" xmlns="http://www.w3.org/2000/svg">
<path d="M277.167 0C277.167 0 321.703 108.954 130.83 182.138C27.1137 221.893 -52.5463 323.789 42.5677 481.193C50.4447 410.836 84.2207 255.708 229.456 220.309C229.456 220.309 94.2797 270.855 82.3387 499.656C151.798 509.408 314.7 515.961 363.065 374.594C426.931 187.817 277.167 0 277.167 0Z" fill="#15803D"/>
<path d="M82.4017 498.704C229.858 439.855 337.15 301.994 351.958 137.421C321.813 56.107 277.167 0 277.167 0C277.167 0 321.703 108.954 130.83 182.138C27.1137 221.893 -52.5463 323.789 42.5677 481.193C50.4447 410.836 84.2207 255.708 229.456 220.309C229.448 220.31 94.6737 270.73 82.4017 498.704Z" fill="#15803D"/>
<path d="M27.8534 185.77C35.4666 185.77 41.6384 179.598 41.6384 171.985C41.6384 164.372 35.4666 158.2 27.8534 158.2C20.2401 158.2 14.0684 164.372 14.0684 171.985C14.0684 179.598 20.2401 185.77 27.8534 185.77Z" fill="#15803D"/>
<path d="M71.1761 168.046C76.6139 168.046 81.0221 163.638 81.0221 158.2C81.0221 152.762 76.6139 148.354 71.1761 148.354C65.7383 148.354 61.3301 152.762 61.3301 158.2C61.3301 163.638 65.7383 168.046 71.1761 168.046Z" fill="#15803D"/>
<path d="M62.3162 89.2769C75.9107 89.2769 86.9312 78.2564 86.9312 64.6619C86.9312 51.0674 75.9107 40.0469 62.3162 40.0469C48.7217 40.0469 37.7012 51.0674 37.7012 64.6619C37.7012 78.2564 48.7217 89.2769 62.3162 89.2769Z" fill="#15803D"/>
<path d="M138.131 128.662C142.481 128.662 146.008 125.136 146.008 120.785C146.008 116.435 142.481 112.908 138.131 112.908C133.781 112.908 130.254 116.435 130.254 120.785C130.254 125.136 133.781 128.662 138.131 128.662Z" fill="#15803D"/>
<path d="M204.107 99.1231C216.614 99.1231 226.753 88.9841 226.753 76.4771C226.753 63.97 216.614 53.8311 204.107 53.8311C191.6 53.8311 181.461 63.97 181.461 76.4771C181.461 88.9841 191.6 99.1231 204.107 99.1231Z" fill="#15803D"/>
</svg>
