<svg width="950" height="954" viewBox="0 0 950 954" fill="none" xmlns="http://www.w3.org/2000/svg">
<path d="M813 137C721 46 608 0 475 0C346 0 233 46 138 137C46 229 0 342 0 475C0 608 46 721 138 812C229 904 342 954 475 954C608 954 721 908 813 812C904 721 950 608 950 475C950 342 904 229 813 137ZM783 167C867 254 908 354 908 475C908 596 867 700 783 783C700 867 596 913 475 913C354 913 254 871 171 783C88 700 42 596 42 475C42 354 83 254 171 167C254 83 358 37 475 37C596 37 696 83 783 167ZM413 367V617L617 492L413 367Z" fill="white"/>
</svg>
