<svg width="362" height="245" viewBox="0 0 362 245" fill="none" xmlns="http://www.w3.org/2000/svg">
<path d="M42.25 213.34L42.3 211.09" stroke="#E48A08" stroke-opacity="0.894" stroke-width="2"/>
<path d="M33.2297 201.97C32.5697 201.976 31.9697 202.16 31.4297 202.52" stroke="#E48A08" stroke-opacity="0.894" stroke-width="2"/>
<path d="M133.88 59.5896C131.913 60.1029 129.95 60.2662 127.99 60.0796C127.663 60.0462 127.4 59.8962 127.2 59.6296C126.513 58.7029 125.616 58.3362 124.51 58.5296C124.459 58.5376 124.411 58.5578 124.37 58.5883C124.328 58.6188 124.295 58.6587 124.274 58.7043C124.252 58.7499 124.242 58.7999 124.245 58.8497C124.247 58.8995 124.263 58.9475 124.29 58.9896C126.256 62.3562 127.553 66.0462 128.18 70.0596C129.08 75.7996 129.303 81.9462 128.85 88.4996C128.776 89.5062 128.5 90.2129 128.02 90.6196" stroke="#D2D3D8" stroke-width="2"/>
<path d="M107.09 45.74C107.077 44.7 106.23 43.81 104.55 43.07C104.103 42.8767 103.963 42.55 104.13 42.09C104.343 41.51 104.287 40.9833 103.96 40.51C103.777 40.2489 103.52 40.0442 103.22 39.92C97.5399 37.5667 91.3566 36.66 84.6699 37.2" stroke="#C4C5C9" stroke-width="2"/>
<path d="M84.67 37.1996L72.7 39.8196C72.4959 39.8656 72.2873 39.8656 72.09 39.8196C70.9033 39.5596 69.7033 39.5096 68.49 39.6696C67.7233 39.7696 67.1033 39.5262 66.63 38.9396C66.4166 38.6796 66.14 38.5596 65.8 38.5796C64.6133 38.6662 63.4733 38.4529 62.38 37.9396C62.0733 37.7929 61.87 37.5529 61.77 37.2196C61.5966 36.6662 61.6133 36.0296 61.82 35.3096" stroke="#D2D3D8" stroke-width="2"/>
<path d="M137.89 95.79L136.49 95.71" stroke="#D2D3D8" stroke-width="2"/>
<path d="M136.49 95.7094C136.963 95.156 136.27 94.5894 134.41 94.0094C132.15 93.3027 129.863 92.6694 127.55 92.1094" stroke="#BBBCC1" stroke-width="2"/>
<path d="M84.6696 37.1992C84.0163 39.4859 83.173 41.0859 82.1396 41.9992" stroke="#BBBCC1" stroke-width="2"/>
<path d="M64.7897 49.8298C66.3364 47.7831 67.1964 45.8731 67.3697 44.0998C67.3794 44.0087 67.3639 43.9168 67.3249 43.8339C67.2859 43.7511 67.2249 43.6805 67.1485 43.63C67.0722 43.5794 66.9834 43.5508 66.8919 43.5473C66.8005 43.5437 66.7097 43.5653 66.6297 43.6098C63.4897 45.3031 60.7064 47.5331 58.2797 50.2998C51.1997 58.3731 47.6864 67.7765 47.7397 78.5098C47.7597 83.1298 47.6897 87.7198 47.7097 92.4198" stroke="#D2D3D8" stroke-width="2"/>
<path d="M47.7105 92.4199L40.4805 94.7399" stroke="#BBBCC1" stroke-width="2"/>
<path d="M125.75 92.8398C129.123 92.9865 132.703 93.9432 136.49 95.7098" stroke="#C4C5C9" stroke-width="2"/>
<path d="M148.14 102.93C148.06 103.176 147.937 103.323 147.77 103.37C147.604 103.416 147.454 103.39 147.32 103.29C146.987 103.036 146.647 103.12 146.3 103.54C146.263 103.583 146.216 103.617 146.162 103.64C146.109 103.663 146.05 103.673 145.99 103.67L134.04 103.39C134.034 103.39 134.03 103.39 134.03 103.39C133.95 103.456 133.884 103.533 133.83 103.62C133.717 103.8 133.757 103.93 133.95 104.01L140.69 106.77C141.057 106.916 141.294 107.18 141.4 107.56C142.054 109.886 142.354 112.416 142.3 115.15C142.289 115.598 142.121 116.028 141.825 116.364C141.528 116.7 141.123 116.922 140.68 116.99C139.814 117.116 139.07 117.016 138.45 116.69" stroke="#D2D3D8" stroke-width="2"/>
<path d="M138.45 116.689L137.25 110.679C137.183 110.339 136.99 110.103 136.67 109.969C120.883 103.376 104.563 99.1326 87.71 97.2393" stroke="#EDAF70" stroke-width="2"/>
<path d="M87.7097 97.2393C71.0897 99.4459 55.4064 103.629 40.6597 109.789C40.3653 109.915 40.1068 110.112 39.9077 110.364C39.7086 110.615 39.5752 110.913 39.5197 111.229L37.9697 120.159" stroke="#EDD070" stroke-width="2"/>
<path d="M37.97 120.16L34.7 120.08C34.3267 120.073 34.1033 119.883 34.03 119.51C33.93 118.963 34 118.426 34.24 117.9C34.38 117.593 34.45 117.273 34.45 116.94C34.4367 115.273 34.5733 113.62 34.86 111.98C35.0267 111.013 35.1367 110.09 35.19 109.21C35.31 106.95 37.57 105.95 39.49 105.57C39.6643 105.537 39.8203 105.445 39.93 105.31C40.1367 105.063 40.2133 104.806 40.16 104.54C40.08 104.14 39.8467 103.876 39.46 103.75C38.46 103.423 37.7633 103.296 37.37 103.37C34.65 103.883 31.9433 103.696 29.25 102.81" stroke="#D2D3D8" stroke-width="2"/>
<path d="M39.9404 95.9793L52.3304 91.8193" stroke="#C4C5C9" stroke-width="2"/>
<path d="M51.71 90.7695C51.71 90.9962 51.69 91.1595 51.65 91.2595C51.63 91.3195 51.51 91.3762 51.29 91.4295C50.1633 91.7162 48.97 92.0462 47.71 92.4195" stroke="#C4C5C9" stroke-width="2"/>
<path d="M138.45 116.689L139.2 125.749" stroke="#E4A668" stroke-width="2"/>
<path d="M139.2 125.75C139.606 133.097 139.003 140.273 137.39 147.28" stroke="#D69759" stroke-width="2"/>
<path d="M137.39 147.28L137.03 144.8C136.983 144.48 136.796 144.32 136.47 144.32L125.27 144.26" stroke="#FFA200" stroke-width="2"/>
<path d="M125.27 144.26C125.656 142.78 125.776 141.243 125.63 139.65C125.603 139.33 125.473 139.053 125.24 138.82C124.613 138.213 124.41 137.436 124.63 136.49C124.726 136.065 124.658 135.618 124.44 135.24L122.16 131.35C121.926 130.943 121.613 130.613 121.22 130.36C120.54 129.92 120.18 129.336 120.14 128.61C120.126 128.336 120.02 128.106 119.82 127.92L118.22 126.39C118.133 126.316 118.093 126.223 118.1 126.11C118.106 126.01 118.116 125.913 118.13 125.82C118.157 125.615 118.132 125.407 118.057 125.214C117.981 125.022 117.859 124.852 117.7 124.72C116.84 124.006 116.036 123.226 115.29 122.38C115.096 122.16 114.86 122.013 114.58 121.94C114.42 121.893 114.256 121.86 114.09 121.84C113.81 121.8 113.573 121.68 113.38 121.48L111.03 119.15C110.776 118.903 110.476 118.803 110.13 118.85C109.65 118.916 109.333 118.73 109.18 118.29C109.124 118.123 109.009 117.984 108.857 117.899C108.705 117.813 108.528 117.789 108.36 117.83C107.713 117.983 107.286 117.75 107.08 117.13C106.993 116.87 106.82 116.78 106.56 116.86C105.893 117.046 105.423 116.833 105.15 116.22C105.01 115.906 104.77 115.783 104.43 115.85C103.69 115.996 103.22 115.703 103.02 114.97C102.913 114.596 102.666 114.436 102.28 114.49C101.76 114.57 101.216 114.54 100.65 114.4C100.35 114.326 100.126 114.15 99.9797 113.87C99.8397 113.596 99.6264 113.4 99.3397 113.28C99.1988 113.223 99.0471 113.199 98.8951 113.207C98.7431 113.216 98.5945 113.258 98.4597 113.33C97.5197 113.83 96.6664 113.716 95.8997 112.99C95.6797 112.783 95.4164 112.67 95.1097 112.65L88.1797 112.14" stroke="#FC8B03" stroke-width="2"/>
<path d="M87.71 97.2393C88.3566 101.746 88.5133 106.713 88.18 112.139" stroke="#FFA200" stroke-width="2"/>
<path d="M88.1796 112.14C88.3396 112.753 88.3263 113.61 88.1396 114.71" stroke="#FCAD03" stroke-width="2"/>
<path d="M88.1396 114.71C85.9129 114.543 83.6729 114.74 81.4196 115.3C80.6396 115.493 79.8463 115.623 79.0396 115.69C78.2996 115.756 77.4896 115.943 76.6096 116.25C73.3563 117.403 70.4263 118.856 67.8196 120.61C67.1063 121.09 66.3763 121.54 65.6296 121.96C64.8696 122.386 64.1863 122.903 63.5796 123.51C61.7196 125.37 59.9763 127.353 58.3496 129.46" stroke="#FFCE2E" stroke-width="2"/>
<path d="M58.3498 129.46C54.6965 131.9 53.5498 135.297 54.9098 139.65" stroke="#AF902F" stroke-width="2"/>
<path d="M54.9098 139.649C53.9631 140.263 53.5464 141.796 53.6598 144.249" stroke="#FFCE2E" stroke-width="2"/>
<path d="M53.6599 144.25L38.9199 144.18" stroke="#FFA200" stroke-width="2"/>
<path d="M38.9202 144.18C37.8402 138.1 37.4202 132.043 37.6602 126.01" stroke="#D6B859" stroke-width="2"/>
<path d="M37.6602 126.009L37.9702 120.159" stroke="#E4C768" stroke-width="2"/>
<path d="M37.6603 126.009C34.0603 125.196 32.7136 127.216 33.6203 132.069C33.767 132.869 33.827 133.696 33.8003 134.549C33.767 135.322 33.797 136.096 33.8903 136.869C34.4103 141.309 35.2503 145.682 36.4103 149.989C36.8036 151.456 37.3236 152.912 37.9703 154.359C38.5903 155.739 39.1203 157.189 39.5603 158.709C39.9536 160.069 40.5136 161.459 41.2403 162.879C41.387 163.172 41.6203 163.289 41.9403 163.229L45.1503 162.679" stroke="#BBBCC1" stroke-width="2"/>
<path d="M45.1504 162.68L51.6704 174.02" stroke="#E4A668" stroke-width="2"/>
<path d="M51.6699 174.02C51.1965 174.773 50.5432 175.146 49.7099 175.14C49.2165 175.14 48.9832 175.386 49.0099 175.88C49.0365 176.326 49.2132 176.676 49.5399 176.93C49.6932 177.043 49.8265 177.173 49.9399 177.32L56.5999 185.77" stroke="#D2D3D8" stroke-width="2"/>
<path d="M56.6002 185.77L51.7402 186.25C51.4135 186.283 51.1602 186.163 50.9802 185.89C49.9935 184.363 48.8035 183.46 47.4102 183.18" stroke="#BBBCC1" stroke-width="2"/>
<path d="M127.54 186.85L125.29 186.03C124.977 185.916 124.657 185.893 124.33 185.96C123.657 186.1 123.133 185.873 122.76 185.28C122.56 184.96 122.277 184.85 121.91 184.95C121.11 185.183 120.42 185.64 119.84 186.32" stroke="#BBBCC1" stroke-width="2"/>
<path d="M119.84 186.319L119.87 185.329C119.877 184.969 119.704 184.759 119.35 184.699C118.657 184.579 117.967 184.302 117.28 183.869" stroke="#D2D3D8" stroke-width="2"/>
<path d="M117.28 183.87C123.32 177.563 128.227 170.427 132 162.46" stroke="#E4C768" stroke-width="2"/>
<path d="M132 162.46L135.01 163.04C135.343 163.107 135.603 162.993 135.79 162.7C136.417 161.727 136.84 160.78 137.06 159.86C137.287 158.907 137.597 157.993 137.99 157.12C140.303 151.913 141.797 146.703 142.47 141.49C142.85 138.497 143.15 136.403 143.37 135.21C143.43 134.863 143.37 134.54 143.19 134.24C142.983 133.893 142.963 133.54 143.13 133.18C143.297 132.82 143.397 132.433 143.43 132.02C143.59 130.26 143.423 128.62 142.93 127.1C142.861 126.879 142.741 126.678 142.58 126.511C142.419 126.345 142.221 126.218 142.002 126.14C141.783 126.063 141.549 126.037 141.318 126.065C141.087 126.092 140.865 126.173 140.67 126.3C140.263 126.567 139.773 126.383 139.2 125.75" stroke="#BBBCC1" stroke-width="2"/>
<path d="M117.28 183.869C108.887 192.922 99.2604 200.179 88.4004 205.639" stroke="#EDD070" stroke-width="2"/>
<path d="M125.27 144.26L117.15 144.22" stroke="#FCAD03" stroke-width="2"/>
<path d="M117.15 144.219L110.74 143.739" stroke="#FCB732" stroke-width="2"/>
<path d="M110.74 143.739L110.71 129.459C110.708 129.341 110.66 129.228 110.576 129.144C110.492 129.06 110.379 129.012 110.26 129.009L105.46 128.989C105.147 128.983 104.99 129.136 104.99 129.449L104.98 143.679" stroke="#AB7932" stroke-width="2"/>
<path d="M104.98 143.68L100.1 144.11" stroke="#FCB732" stroke-width="2"/>
<path d="M100.1 144.11C96.9703 140.7 91.9403 140.05 87.8203 138.88" stroke="#AB7932" stroke-width="2"/>
<path d="M87.8204 138.88C88.7271 136.733 88.6838 134.903 87.6904 133.39" stroke="#FCB732" stroke-width="2"/>
<path d="M87.6904 133.39C91.9038 132.656 94.3438 133.883 95.0104 137.07C95.0771 137.383 95.2704 137.526 95.5904 137.5L99.9804 137.15C100.334 137.123 100.487 136.936 100.44 136.59C99.9271 132.823 98.0138 130.32 94.7004 129.08C92.7804 128.366 90.6871 128.113 88.4204 128.32" stroke="#AB7932" stroke-width="2"/>
<path d="M88.4196 128.32L88.1396 114.71" stroke="#FCB732" stroke-width="2"/>
<path d="M132 162.459C134.287 157.533 136.083 152.473 137.39 147.279" stroke="#D6B859" stroke-width="2"/>
<path d="M59.1396 143.489C58.913 144.136 58.4963 144.426 57.8896 144.359" stroke="#FCB732" stroke-width="2"/>
<path d="M57.8902 144.36L53.6602 144.25" stroke="#FFAD2E" stroke-width="2"/>
<path d="M88.2598 175.689L88.3998 205.639" stroke="#FFA200" stroke-width="2"/>
<path d="M88.3999 205.64C73.5266 197.813 61.2833 187.273 51.6699 174.02" stroke="#EDAF70" stroke-width="2"/>
<path d="M75.2502 144.25C77.1502 148.79 76.7702 152.36 74.1102 154.96C69.6502 159.31 59.8402 159.07 55.7002 154.2" stroke="#AB7932" stroke-width="2"/>
<path d="M55.7 154.199C54.4533 152.486 53.6733 150.536 53.36 148.349C53.3333 148.189 53.4033 148.099 53.57 148.079L58.53 147.549C58.7433 147.529 58.8567 147.629 58.87 147.849C58.9633 149.343 59.34 150.323 60 150.789" stroke="#AF6F2F" stroke-width="2"/>
<path d="M59.9996 150.789C62.0596 153.939 69.7996 154.019 70.6396 149.879C71.0463 147.906 70.2163 146.653 68.1497 146.119C65.1163 145.333 62.113 144.456 59.1396 143.489" stroke="#AB7932" stroke-width="2"/>
<path d="M59.1402 143.489C57.5135 142.656 56.1035 141.376 54.9102 139.649" stroke="#AF9B5D" stroke-width="2"/>
<path d="M88.4204 128.319C81.7404 128.939 78.7671 132.256 79.5004 138.269C79.7471 140.283 81.4404 142.119 84.5804 143.779" stroke="#AF9B5D" stroke-width="2"/>
<path d="M84.58 143.779C81.78 144.533 78.67 144.689 75.25 144.249" stroke="#FCB732" stroke-width="2"/>
<path d="M75.2496 144.25C73.9029 142.91 72.7796 142.023 71.8796 141.59C69.0796 140.26 64.5496 140.02 61.2196 138.18C60.2129 137.626 59.7929 136.736 59.9596 135.51C60.0063 135.15 60.1663 134.85 60.4396 134.61C61.7329 133.443 63.5563 132.976 65.9096 133.21C68.1363 133.43 69.5429 134.756 70.1296 137.19C70.1525 137.274 70.2037 137.348 70.2748 137.399C70.3458 137.45 70.4323 137.475 70.5196 137.47L75.2396 137.09C75.3929 137.076 75.4629 136.993 75.4496 136.84C74.5896 127.91 65.1496 127.02 58.3496 129.46" stroke="#AF9B5D" stroke-width="2"/>
<path d="M38.9199 144.18C40.2599 150.653 42.3366 156.82 45.1499 162.68" stroke="#D69759" stroke-width="2"/>
<path d="M119.84 186.32C110.953 195.946 100.79 203.71 89.3496 209.61C89.0601 209.761 88.7382 209.839 88.4122 209.837C88.0862 209.835 87.766 209.754 87.4796 209.6C75.7729 203.306 65.4796 195.363 56.5996 185.77" stroke="#C4C5C9" stroke-width="2"/>
<path d="M87.5996 144.76L88.1196 152.74" stroke="#FCB732" stroke-width="2"/>
<path d="M87.9004 157.909L88.2204 169.209" stroke="#FCB732" stroke-width="2"/>
<path d="M88.2197 169.21L88.2597 175.69" stroke="#FCAD03" stroke-width="2"/>
<path d="M88.2596 175.689L82.8796 175.269C82.6196 175.249 82.393 175.153 82.1996 174.979C81.473 174.319 80.5796 174.149 79.5196 174.469C78.913 174.656 78.4063 174.523 77.9996 174.069C77.8246 173.868 77.5853 173.731 77.3196 173.679L75.4296 173.319C75.263 173.286 75.1163 173.206 74.9896 173.079C74.3896 172.493 73.623 172.269 72.6896 172.409C72.5551 172.428 72.4186 172.413 72.2928 172.365C72.167 172.318 72.0558 172.24 71.9696 172.139C71.723 171.846 71.4196 171.746 71.0596 171.839C70.6263 171.953 70.3296 171.799 70.1696 171.379C70.0096 170.959 69.703 170.786 69.2496 170.859C68.8296 170.926 68.4963 170.786 68.2496 170.439C67.763 169.766 67.1196 169.329 66.3196 169.129C65.953 169.029 65.6396 168.839 65.3796 168.559C63.1063 166.093 60.6863 163.619 58.1196 161.139C57.2896 160.339 57.0596 159.339 56.5796 158.309C56.553 158.249 56.2096 157.789 55.5496 156.929C54.9896 156.209 55.0396 155.299 55.6996 154.199" stroke="#FC8B03" stroke-width="2"/>
<path d="M110.74 143.739L110.79 152.199C110.79 152.546 110.96 152.719 111.3 152.719L118.73 152.749" stroke="#AF9B5D" stroke-width="2"/>
<path d="M118.73 152.75L124.76 152.8C124.877 152.8 124.989 152.846 125.071 152.929C125.154 153.011 125.2 153.123 125.2 153.24V157.06C125.194 157.307 125.07 157.43 124.83 157.43L114.11 157.47" stroke="#AF902F" stroke-width="2"/>
<path d="M114.11 157.47L105.48 157.4C105.416 157.4 105.352 157.387 105.293 157.362C105.234 157.338 105.179 157.302 105.134 157.256C105.088 157.211 105.052 157.157 105.028 157.097C105.003 157.038 104.99 156.974 104.99 156.91L104.98 143.68" stroke="#AF9B5D" stroke-width="2"/>
<path d="M114.11 157.47C112.39 160.63 110.263 163.043 107.73 164.71C104.083 167.103 99.8597 168.83 95.0597 169.89C93.6397 170.203 91.9897 170.266 90.1097 170.08C90.0938 170.08 90.0786 170.072 90.0673 170.059C90.056 170.046 90.0497 170.028 90.0497 170.01C90.0764 169.776 89.9764 169.67 89.7497 169.69C89.6164 169.703 89.5297 169.773 89.4897 169.9C89.4564 170.033 89.3797 170.093 89.2597 170.08C89.0731 170.06 88.9631 169.956 88.9297 169.77C88.8297 169.216 88.5931 169.03 88.2197 169.21" stroke="#FFCE2E" stroke-width="2"/>
<path d="M117.15 144.22C117.564 144.473 118.07 144.663 118.67 144.79C119.13 144.89 119.214 145.123 118.92 145.49C118.38 146.176 118.327 146.973 118.76 147.88C118.844 148.061 118.882 148.26 118.871 148.458C118.861 148.657 118.802 148.85 118.7 149.02C117.914 150.313 117.924 151.556 118.73 152.75" stroke="#FFCE2E" stroke-width="2"/>
<path d="M87.6903 133.39C83.8003 134.37 84.1303 137.93 87.8203 138.88" stroke="#AF9B5D" stroke-width="2"/>
<path d="M100.1 144.109C104.69 154.059 96.6304 158.769 87.9004 157.909" stroke="#AF9B5D" stroke-width="2"/>
<path d="M87.9004 157.91C82.3671 157.156 79.1671 153.936 78.3004 148.25C78.2738 148.09 78.3438 148.003 78.5104 147.99L83.6004 147.58C83.7538 147.566 83.8371 147.636 83.8504 147.79C84.1504 150.536 85.5738 152.186 88.1204 152.74" stroke="#AB7932" stroke-width="2"/>
<path d="M88.1196 152.74C91.1496 153.54 95.3196 152.85 95.7996 149.35C96.2696 145.93 89.5596 145.04 87.5996 144.76" stroke="#AF9B5D" stroke-width="2"/>
<path d="M87.6001 144.759L84.5801 143.779" stroke="#AB7932" stroke-width="2"/>
<path d="M59.9996 150.789C60.2796 150.723 60.5696 150.419 60.8696 149.879C61.1163 149.426 61.1363 149.019 60.9296 148.659C60.783 148.399 60.5596 148.296 60.2596 148.349C59.8596 148.409 59.633 148.239 59.5797 147.839C59.5063 147.239 59.6763 146.763 60.0896 146.409C60.3963 146.149 60.4296 145.863 60.1896 145.549C59.743 144.969 58.9763 144.573 57.8896 144.359" stroke="#FC8B03" stroke-width="2"/>
<path d="M42.2499 213.34L42.2999 211.09C56.0999 223.41 71.2132 233.767 87.6399 242.16C87.7655 242.223 87.9036 242.258 88.0449 242.263C88.1863 242.268 88.3277 242.244 88.4599 242.19C102.387 236.497 115.113 228.857 126.64 219.27C126.827 219.11 127.04 219.03 127.28 219.03C192.3 218.99 259.72 218.997 329.54 219.05C332.587 219.05 335.307 218.64 337.7 217.82C344.76 215.387 350.61 211.114 355.25 205C358.23 201.08 359.723 196.644 359.73 191.69C359.737 157.297 359.733 122.087 359.72 86.0603C359.72 84.2069 359.57 82.2969 359.27 80.3303C357.9 71.3803 351.11 63.6303 343.29 59.4603C339.58 57.4903 334.62 56.2803 330.42 56.2803C273.92 56.2669 216.96 56.2603 159.54 56.2603C159.147 56.2603 158.963 56.0636 158.99 55.6703C159.103 54.2036 159.01 52.7436 158.71 51.2903C156.783 41.9569 152.93 34.0369 147.15 27.5303C143.623 23.5636 140.367 20.4436 137.38 18.1703C122.3 6.71694 104.987 1.43361 85.4399 2.32027C80.8666 2.52694 76.1232 3.17361 71.2099 4.26027C65.0232 5.62694 59.3199 7.65361 54.0999 10.3403C41.2466 16.9536 31.7599 26.5569 25.6399 39.1503C21.6199 47.4369 19.5899 56.4836 19.5499 66.2903C19.5399 67.6603 19.1799 68.8703 19.2199 70.2203C19.3732 76.0269 19.2699 81.5303 18.9099 86.7303C18.8978 86.9023 18.8355 87.067 18.7306 87.2039C18.6257 87.3408 18.4829 87.4439 18.3199 87.5003C14.2932 88.8736 10.3966 90.6769 6.6299 92.9103C5.88323 93.3569 5.41656 94.0303 5.2299 94.9303C3.01656 105.57 2.07656 116.06 2.4099 126.4C2.62323 132.974 3.43656 139.58 4.8499 146.22C9.3099 167.114 18.7699 185.697 33.2299 201.97C32.5699 201.977 31.9699 202.16 31.4299 202.52C16.0766 184.974 6.42323 164.967 2.4699 142.5C-0.31677 126.66 0.229896 110.16 4.1099 93.0003C4.17656 92.7003 4.3399 92.4669 4.5999 92.3003C8.56656 89.7336 12.7232 87.7136 17.0699 86.2403C17.1624 86.2073 17.2431 86.1489 17.3018 86.0724C17.3605 85.9959 17.3946 85.9047 17.3999 85.8103C18.2999 75.7303 17.2199 65.6503 18.8099 55.6303C19.3166 52.4236 20.0366 49.4236 20.9699 46.6303C27.5166 26.9636 40.7566 13.3136 60.6899 5.68027C65.6832 3.77361 71.5099 2.34694 78.1699 1.40027C80.3299 1.09027 82.7899 1.55027 85.2299 1.38027C88.6499 1.14694 92.0732 1.03027 95.4999 1.03027C98.8466 1.03694 102.29 1.41361 105.83 2.16027C116.783 4.48027 126.427 8.48361 134.76 14.1703C148.66 23.6503 158.65 37.4303 160.72 54.2003C160.767 54.5669 160.977 54.7503 161.35 54.7503C217.557 54.7436 274.317 54.7469 331.63 54.7603C332.403 54.7603 333.17 54.8436 333.93 55.0103C335.2 55.2903 336.31 55.1803 337.55 55.5503C348.89 58.8703 356.437 66.0069 360.19 76.9603C360.85 78.8903 360.83 80.8003 361.09 82.8303C361.21 83.7969 361.27 84.7603 361.27 85.7203C361.257 123.334 361.25 158.76 361.25 192C361.243 198.034 359.067 203.524 354.72 208.47C350.12 213.71 344.463 217.384 337.75 219.49C335.05 220.337 332.413 220.76 329.84 220.76C260.913 220.774 193.63 220.77 127.99 220.75C127.61 220.75 127.273 220.87 126.98 221.11C115.92 230.204 104.073 237.36 91.4399 242.58C91.2866 242.64 91.1332 242.7 90.9799 242.76C90.8266 242.807 90.6832 242.877 90.5499 242.97C89.1432 243.917 88.0332 244.197 87.2199 243.81C72.1399 236.537 57.1499 226.38 42.2499 213.34Z" fill="#F99607" fill-opacity="0.996"/>
<path d="M133.88 59.5901C131.913 60.1035 129.95 60.2668 127.99 60.0802C127.663 60.0468 127.4 59.8968 127.2 59.6301C126.513 58.7035 125.617 58.3368 124.51 58.5301C124.459 58.5382 124.411 58.5584 124.37 58.5889C124.329 58.6194 124.296 58.6593 124.274 58.7049C124.252 58.7505 124.242 58.8005 124.245 58.8503C124.248 58.9001 124.263 58.9481 124.29 58.9902C126.257 62.3568 127.553 66.0468 128.18 70.0601C129.08 75.8001 129.303 81.9468 128.85 88.5001C128.777 89.5068 128.5 90.2135 128.02 90.6202C127.627 89.3402 127.45 88.3001 127.49 87.5001C127.657 84.5401 127.6 81.4668 127.32 78.2801C127.13 76.1801 125.92 74.6201 125.74 72.5001C125.353 67.7868 123.87 63.4301 121.29 59.4301C117.59 53.6968 112.857 49.1335 107.09 45.7402C107.077 44.7002 106.23 43.8101 104.55 43.0701C104.103 42.8768 103.963 42.5501 104.13 42.0901C104.343 41.5101 104.287 40.9835 103.96 40.5101C103.777 40.2491 103.52 40.0444 103.22 39.9201C97.54 37.5668 91.3566 36.6601 84.67 37.2001L72.7 39.8201C72.4959 39.8662 72.2873 39.8662 72.09 39.8201C70.9033 39.5601 69.7033 39.5101 68.49 39.6701C67.7233 39.7701 67.1033 39.5268 66.63 38.9401C66.4166 38.6801 66.14 38.5601 65.8 38.5801C64.6133 38.6668 63.4733 38.4535 62.38 37.9401C62.0733 37.7935 61.87 37.5535 61.77 37.2201C61.5966 36.6668 61.6133 36.0301 61.82 35.3101C67.4933 31.8635 73.5866 29.4768 80.1 28.1501C82.8466 27.5835 85.3333 27.3801 87.56 27.5401C90.84 27.7701 93.99 27.5601 97.24 28.3701C99.9133 29.0301 102.59 29.7168 105.27 30.4301C106.23 30.6835 107.18 31.0135 108.12 31.4201C109.047 31.8268 109.97 32.2335 110.89 32.6401C112.19 33.2201 113.373 33.8901 114.44 34.6501C115.95 35.7301 117.69 36.4501 119 37.6801C121.827 40.3601 124.463 43.2368 126.91 46.3102C129.88 50.0302 131.83 55.0101 133.88 59.5901Z" fill="#DBDCE0"/>
<path d="M61.8204 35.3096C61.6137 36.0296 61.5971 36.6662 61.7704 37.2196C61.8704 37.5529 62.0737 37.7929 62.3804 37.9396C63.4737 38.4529 64.6137 38.6662 65.8004 38.5796C66.1404 38.5596 66.4171 38.6796 66.6304 38.9396C67.1037 39.5262 67.7237 39.7696 68.4904 39.6696C69.7037 39.5096 70.9037 39.5596 72.0904 39.8196C72.2877 39.8656 72.4963 39.8656 72.7004 39.8196L84.6704 37.1996C84.0171 39.4862 83.1737 41.0862 82.1404 41.9996C79.3804 42.7196 76.7504 43.4496 74.2504 44.1896C71.9104 44.8829 68.7571 46.7629 64.7904 49.8296C66.3371 47.7829 67.1971 45.8729 67.3704 44.0996C67.3801 44.0085 67.3646 43.9166 67.3256 43.8337C67.2866 43.7509 67.2256 43.6803 67.1493 43.6298C67.0729 43.5792 66.9842 43.5506 66.8927 43.547C66.8012 43.5435 66.7104 43.5651 66.6304 43.6096C63.4904 45.3029 60.7071 47.5329 58.2804 50.2996C51.2004 58.3729 47.6871 67.7762 47.7404 78.5096C47.7604 83.1296 47.6904 87.7196 47.7104 92.4196L40.4804 94.7396C40.5137 87.7996 40.5004 80.8862 40.4404 73.9996C40.4004 68.9329 41.6237 62.9196 44.1104 55.9596C44.4304 55.0596 44.8804 54.2062 45.4604 53.3996C46.5704 51.8596 47.1804 49.7896 48.5404 48.4896C49.4704 47.5996 49.4604 46.5296 50.3504 45.6296C52.2504 43.6829 54.1604 41.6796 56.0804 39.6196C56.9604 38.6729 57.8604 37.8862 58.7804 37.2596C59.7537 36.5929 60.7671 35.9429 61.8204 35.3096Z" fill="#DBDCE0"/>
<path d="M107.09 45.74C104.156 43.94 102.043 42.89 100.75 42.59C94.4496 41.1433 88.2463 40.9467 82.1396 42C83.173 41.0867 84.0163 39.4867 84.6696 37.2C91.3563 36.66 97.5397 37.5667 103.22 39.92C103.52 40.0442 103.777 40.2489 103.96 40.51C104.286 40.9833 104.343 41.51 104.13 42.09C103.963 42.55 104.103 42.8767 104.55 43.07C106.23 43.81 107.076 44.7 107.09 45.74Z" fill="#DBDCE0"/>
<path d="M64.7897 49.8298C61.163 53.1565 58.9664 55.5331 58.1997 56.9598C56.0197 61.0198 54.6764 63.6731 54.1697 64.9198C52.8497 68.1665 52.083 71.3498 51.8697 74.4698C51.6497 77.7598 51.8897 82.7898 51.4597 88.1798C51.3864 89.0598 51.4697 89.9231 51.7097 90.7698C51.7097 90.9964 51.6897 91.1598 51.6497 91.2598C51.6297 91.3198 51.5097 91.3765 51.2897 91.4298C50.163 91.7165 48.9697 92.0465 47.7097 92.4198C47.6897 87.7198 47.7597 83.1298 47.7397 78.5098C47.6864 67.7765 51.1997 58.3731 58.2797 50.2998C60.7064 47.5331 63.4897 45.3031 66.6297 43.6098C66.7097 43.5653 66.8005 43.5437 66.8919 43.5473C66.9834 43.5508 67.0722 43.5794 67.1485 43.63C67.2249 43.6805 67.2859 43.7511 67.3249 43.8339C67.3639 43.9168 67.3794 44.0087 67.3697 44.0998C67.1964 45.8731 66.3364 47.7831 64.7897 49.8298Z" fill="#DBDCE0"/>
<path d="M133.88 59.5896C135.766 63.7096 136.763 66.6796 136.87 68.4996C137.12 72.8696 137.65 77.2796 137.6 81.5796C137.54 85.8796 137.516 90.1196 137.53 94.2996C137.53 94.8196 137.79 95.2696 137.89 95.7896L136.49 95.7096C136.963 95.1562 136.27 94.5896 134.41 94.0096C132.15 93.3029 129.863 92.6696 127.55 92.1096C127.816 91.6029 127.973 91.1062 128.02 90.6196C128.5 90.2129 128.776 89.5062 128.85 88.4996C129.303 81.9462 129.08 75.7996 128.18 70.0596C127.553 66.0462 126.256 62.3562 124.29 58.9896C124.263 58.9475 124.247 58.8995 124.245 58.8497C124.242 58.7999 124.252 58.7499 124.274 58.7043C124.295 58.6587 124.328 58.6188 124.37 58.5883C124.411 58.5578 124.459 58.5376 124.51 58.5296C125.616 58.3362 126.513 58.7029 127.2 59.6296C127.4 59.8962 127.663 60.0462 127.99 60.0796C129.95 60.2662 131.913 60.1029 133.88 59.5896Z" fill="#DBDCE0"/>
<path d="M186.85 77.0404C185.45 82.0404 185.663 86.6871 187.49 90.9804C189.53 95.7704 195.84 96.7104 199.13 92.8404C200.203 91.5737 200.893 89.9737 201.2 88.0404C201.233 87.8471 201.343 87.7804 201.53 87.8404L203.92 88.5704C204.12 88.6304 204.2 88.7637 204.16 88.9704C203.28 93.3837 201.363 96.2904 198.41 97.6904C192.05 100.71 186.05 97.3604 183.98 90.9304C181.92 84.4704 181.92 74.2204 187.99 69.8204C194.46 65.1304 202.29 68.6204 203.61 76.3704C203.636 76.5237 203.576 76.6237 203.43 76.6704L201 77.4604C200.853 77.5137 200.76 77.4637 200.72 77.3104C199.74 73.777 197.91 71.7804 195.23 71.3204C191.32 70.6504 187.89 73.3104 186.85 77.0404Z" fill="white"/>
<path d="M217.805 98.9302C214.643 98.9412 211.606 97.2998 209.36 94.367C207.114 91.4343 205.845 87.4504 205.83 83.2919C205.816 79.1333 207.058 75.1407 209.283 72.1923C211.508 69.244 214.534 67.5814 217.695 67.5704C220.857 67.5594 223.894 69.2008 226.14 72.1335C228.386 75.0663 229.656 79.0501 229.67 83.2087C229.685 87.3672 228.443 91.3599 226.217 94.3082C223.992 97.2566 220.966 98.9191 217.805 98.9302ZM217.761 95.4303C218.903 95.4283 220.032 95.1112 221.085 94.4973C222.139 93.8834 223.095 92.9845 223.9 91.8521C224.705 90.7196 225.343 89.3758 225.777 87.8973C226.211 86.4188 226.433 84.8346 226.43 83.2351C226.427 81.6356 226.2 80.0521 225.76 78.5751C225.321 77.0982 224.679 75.7566 223.87 74.6269C223.061 73.4973 222.101 72.6018 221.046 71.9916C219.991 71.3813 218.86 71.0683 217.719 71.0703C216.578 71.0723 215.448 71.3893 214.395 72.0032C213.342 72.6172 212.385 73.516 211.58 74.6485C210.775 75.7809 210.138 77.1247 209.703 78.6032C209.269 80.0817 209.047 81.666 209.05 83.2655C209.053 84.865 209.28 86.4484 209.72 87.9254C210.159 89.4024 210.801 90.744 211.61 91.8736C212.419 93.0032 213.379 93.8987 214.434 94.509C215.49 95.1192 216.62 95.4323 217.761 95.4303Z" fill="white"/>
<path d="M235.25 72.7102V98.0002C235.25 98.0665 235.224 98.1301 235.177 98.177C235.13 98.2239 235.066 98.2502 235 98.2502H232.25C232.184 98.2502 232.12 98.2239 232.073 98.177C232.026 98.1301 232 98.0665 232 98.0002V68.7502C232 68.6833 232.013 68.6169 232.038 68.5551C232.063 68.4932 232.1 68.437 232.146 68.3896C232.193 68.3423 232.248 68.3047 232.309 68.2791C232.369 68.2534 232.434 68.2402 232.5 68.2402L236.51 68.2502C236.665 68.2495 236.816 68.3001 236.939 68.3942C237.062 68.4883 237.15 68.6205 237.19 68.7702L243.84 92.7302C244.033 93.4302 244.233 93.4336 244.44 92.7402L251.49 68.9002C251.617 68.4669 251.903 68.2502 252.35 68.2502H255.75C256.083 68.2502 256.25 68.4169 256.25 68.7502V98.0002C256.25 98.1669 256.167 98.2502 256 98.2502H253.25C253.184 98.2502 253.12 98.2239 253.073 98.177C253.026 98.1301 253 98.0665 253 98.0002V75.1902C252.993 73.4436 252.747 73.4069 252.26 75.0802L245.63 97.6302C245.51 98.0436 245.237 98.2502 244.81 98.2502H243.29C242.93 98.2502 242.703 98.0769 242.61 97.7302L235.66 72.6602C235.387 71.6869 235.25 71.7036 235.25 72.7102Z" fill="white"/>
<path d="M262.25 86.5395V97.9995C262.25 98.0658 262.224 98.1294 262.177 98.1763C262.13 98.2232 262.066 98.2495 262 98.2495L259.25 98.2395C259.083 98.2395 259 98.1595 259 97.9995V68.7895C259 68.4295 259.183 68.2495 259.55 68.2495C262.777 68.2295 266.21 68.2362 269.85 68.2695C276.02 68.3295 278.54 73.4295 277.61 78.8795C276.15 87.4195 269.03 85.8695 262.79 85.9895C262.43 85.9962 262.25 86.1795 262.25 86.5395ZM262.24 72.1695L262.26 82.0495C262.26 82.1662 262.306 82.2781 262.389 82.3607C262.471 82.4432 262.583 82.4895 262.7 82.4895L269.79 82.4795C270.411 82.4782 271.026 82.3513 271.599 82.1058C272.173 81.8604 272.693 81.5013 273.132 81.0491C273.57 80.5968 273.917 80.0603 274.154 79.4702C274.39 78.88 274.511 78.2478 274.51 77.6095V76.5695C274.507 75.2806 274.006 74.0455 273.117 73.136C272.229 72.2264 271.024 71.7169 269.77 71.7195L262.68 71.7295C262.563 71.7295 262.451 71.7759 262.369 71.8584C262.286 71.9409 262.24 72.0528 262.24 72.1695Z" fill="white"/>
<path d="M301.4 96.1597L310.02 68.7397C310.133 68.393 310.373 68.223 310.74 68.2297L312.87 68.2597C313.303 68.2664 313.59 68.473 313.73 68.8797L323.57 97.7597C323.683 98.093 323.567 98.2597 323.22 98.2597L320.93 98.2497C320.762 98.2497 320.597 98.1965 320.461 98.0978C320.324 97.999 320.223 97.8597 320.17 97.6997L317.74 90.0197C317.627 89.673 317.387 89.4997 317.02 89.4997H307.21C306.843 89.4997 306.607 89.6764 306.5 90.0297L304.26 97.8197C304.222 97.9438 304.145 98.0524 304.04 98.1297C303.936 98.2071 303.81 98.2491 303.68 98.2497H298.44C298.033 98.2497 297.733 98.0697 297.54 97.7097C295.62 94.103 293.773 90.8164 292 87.8497C289.86 84.2897 287.56 85.1797 284.09 84.9597C284.015 84.9542 283.939 84.9646 283.867 84.9902C283.796 85.0159 283.731 85.0563 283.675 85.1088C283.62 85.1614 283.576 85.225 283.546 85.2957C283.515 85.3664 283.5 85.4426 283.5 85.5197V97.9997C283.5 98.1664 283.417 98.2497 283.25 98.2497L280.5 98.2397C280.333 98.2397 280.25 98.1597 280.25 97.9997V68.7897C280.25 68.3697 280.46 68.1697 280.88 68.1897C283.4 68.323 286.107 68.3263 289 68.1997C295.52 67.9197 300.37 69.5197 299.94 77.0997C299.707 81.193 297.703 83.623 293.93 84.3897C293.617 84.4564 293.567 84.6097 293.78 84.8497C296.44 87.7897 298.763 91.5697 300.75 96.1897C300.997 96.7697 301.213 96.7597 301.4 96.1597ZM283.52 72.0597L283.48 81.1197C283.48 81.2125 283.517 81.3015 283.583 81.3672C283.648 81.4328 283.737 81.4697 283.83 81.4697L291.93 81.4997C292.563 81.5024 293.189 81.3839 293.775 81.151C294.36 80.9182 294.892 80.5755 295.341 80.1426C295.789 79.7098 296.146 79.1952 296.389 78.6285C296.633 78.0617 296.759 77.4538 296.76 76.8397V76.4197C296.762 75.1829 296.26 73.9956 295.362 73.1182C294.464 72.2409 293.244 71.7451 291.97 71.7397L283.87 71.7097C283.777 71.7097 283.688 71.7466 283.622 71.8122C283.557 71.8778 283.52 71.9669 283.52 72.0597ZM307.83 85.6297C307.757 85.8764 307.85 85.9997 308.11 85.9997H315.82C316.24 85.9997 316.387 85.7997 316.26 85.3997L312.11 72.5597C312.017 72.2597 311.923 72.2597 311.83 72.5597L307.83 85.6297Z" fill="white"/>
<path d="M125.75 92.8399C129.123 92.9866 132.703 93.9433 136.49 95.71L137.89 95.79L138.06 96.64C138.127 96.9866 138.333 97.1133 138.68 97.0199C138.8 96.9866 138.92 96.9666 139.04 96.96C139.182 96.9476 139.325 96.9789 139.451 97.0501C139.577 97.1213 139.681 97.2291 139.75 97.36C140.097 98.0333 140.657 98.33 141.43 98.25C141.631 98.229 141.833 98.2604 142.017 98.341C142.201 98.4217 142.361 98.5489 142.48 98.71C142.8 99.15 143.24 99.33 143.8 99.25C143.958 99.2291 144.119 99.2495 144.266 99.3092C144.414 99.3688 144.542 99.4655 144.64 99.5899C144.727 99.7099 144.83 99.8066 144.95 99.8799C145.13 99.9999 145.327 100.077 145.54 100.11C147.327 100.403 148.193 101.343 148.14 102.93C148.06 103.177 147.937 103.323 147.77 103.37C147.603 103.417 147.453 103.39 147.32 103.29C146.987 103.037 146.647 103.12 146.3 103.54C146.263 103.583 146.216 103.618 146.162 103.64C146.108 103.663 146.049 103.673 145.99 103.67L134.04 103.39C134.033 103.39 134.03 103.39 134.03 103.39C133.95 103.457 133.883 103.533 133.83 103.62C133.717 103.8 133.757 103.93 133.95 104.01L140.69 106.77C141.057 106.917 141.293 107.18 141.4 107.56C142.053 109.887 142.353 112.417 142.3 115.15C142.289 115.598 142.12 116.028 141.824 116.364C141.528 116.701 141.123 116.922 140.68 116.99C139.813 117.117 139.07 117.017 138.45 116.69L137.25 110.68C137.183 110.34 136.99 110.103 136.67 109.97C120.883 103.377 104.563 99.1333 87.71 97.24C71.09 99.4466 55.4067 103.63 40.66 109.79C40.3655 109.915 40.107 110.113 39.9079 110.364C39.7088 110.616 39.5755 110.913 39.52 111.23L37.97 120.16L34.7 120.08C34.3267 120.073 34.1033 119.883 34.03 119.51C33.93 118.963 34 118.427 34.24 117.9C34.38 117.593 34.45 117.273 34.45 116.94C34.4367 115.273 34.5733 113.62 34.86 111.98C35.0267 111.013 35.1367 110.09 35.19 109.21C35.31 106.95 37.57 105.95 39.49 105.57C39.6643 105.537 39.8203 105.445 39.93 105.31C40.1367 105.063 40.2133 104.807 40.16 104.54C40.08 104.14 39.8467 103.877 39.46 103.75C38.46 103.423 37.7633 103.297 37.37 103.37C34.65 103.883 31.9433 103.697 29.25 102.81C29.61 101.037 31.3433 99.55 34.45 98.35C35.0167 98.13 35.6167 98.0266 36.25 98.04C36.6233 98.0466 36.9033 97.9 37.09 97.6C37.3167 97.2333 37.64 97.0966 38.06 97.19C38.94 97.39 39.5667 96.9866 39.94 95.98L52.33 91.82C53.5167 92.3133 54.5233 92.2566 55.35 91.65C55.63 91.4433 55.9467 91.35 56.3 91.37C58.21 91.51 59.45 90.64 61.19 90.22C64.49 89.42 67.7533 88.6833 70.98 88.01C72.54 87.68 73.78 86.98 75.48 87.11C76.73 87.2 77.17 86.46 78.29 86.25C79.63 85.9966 80.8833 85.8933 82.05 85.94C82.39 85.9533 82.6933 85.8566 82.96 85.65C83.12 85.53 83.2867 85.4266 83.46 85.3399C83.6467 85.2533 83.8433 85.2066 84.05 85.1999C86.9967 85.0733 90 84.9966 93.06 84.97C93.3933 84.9633 93.6433 85.1033 93.81 85.39C93.8833 85.53 93.98 85.6533 94.1 85.76C94.32 85.9533 94.57 86.0266 94.85 85.98C96.75 85.6933 98.5167 86.0133 100.15 86.94C100.423 87.1 100.717 87.17 101.03 87.15C102.51 87.0633 103.827 87.2866 104.98 87.82C105.355 87.991 105.762 88.0731 106.17 88.06C107.663 88.0266 109.007 88.2866 110.2 88.8399C110.567 89.0133 110.953 89.0966 111.36 89.0899C112.313 89.0699 113.18 89.28 113.96 89.72C114 89.7399 114.04 89.7534 114.08 89.76L125.75 92.8399Z" fill="#DBDCE0"/>
<path d="M51.7104 90.7695C51.9771 90.9962 52.1838 91.3462 52.3304 91.8195L39.9404 95.9795L40.4804 94.7395L47.7104 92.4195C48.9704 92.0462 50.1638 91.7162 51.2904 91.4295C51.5104 91.3762 51.6304 91.3195 51.6504 91.2595C51.6904 91.1595 51.7104 90.9962 51.7104 90.7695Z" fill="#ADADB2"/>
<path d="M127.55 92.1104C129.863 92.6704 132.15 93.3037 134.41 94.0104C136.27 94.5904 136.963 95.157 136.49 95.7104C132.703 93.9437 129.123 92.987 125.75 92.8403C126.577 92.9537 127.177 92.7104 127.55 92.1104Z" fill="#ADADB2"/>
<path d="M87.7102 97.2402C88.3568 101.747 88.5135 106.714 88.1802 112.14C88.3402 112.754 88.3268 113.61 88.1402 114.71C85.9135 114.544 83.6735 114.74 81.4202 115.3C80.6402 115.494 79.8469 115.624 79.0402 115.69C78.3002 115.757 77.4902 115.944 76.6102 116.25C73.3569 117.404 70.4268 118.857 67.8202 120.61C67.1068 121.09 66.3768 121.54 65.6302 121.96C64.8702 122.387 64.1868 122.904 63.5802 123.51C61.7202 125.37 59.9768 127.354 58.3502 129.46C54.6968 131.9 53.5502 135.297 54.9102 139.65C53.9635 140.264 53.5468 141.797 53.6602 144.25L38.9202 144.18C37.8402 138.1 37.4202 132.044 37.6602 126.01L37.9702 120.16L39.5202 111.23C39.5757 110.914 39.709 110.616 39.9081 110.365C40.1072 110.113 40.3657 109.916 40.6602 109.79C55.4068 103.63 71.0902 99.4469 87.7102 97.2402Z" fill="#FFC300"/>
<path d="M87.71 97.2402C104.563 99.1336 120.883 103.377 136.67 109.97C136.99 110.104 137.183 110.34 137.25 110.68L138.45 116.69L139.2 125.75C139.607 133.097 139.003 140.274 137.39 147.28L137.03 144.8C136.983 144.48 136.797 144.32 136.47 144.32L125.27 144.26C125.657 142.78 125.777 141.244 125.63 139.65C125.603 139.33 125.473 139.054 125.24 138.82C124.613 138.214 124.41 137.437 124.63 136.49C124.726 136.065 124.658 135.619 124.44 135.24L122.16 131.35C121.927 130.944 121.613 130.614 121.22 130.36C120.54 129.92 120.18 129.337 120.14 128.61C120.127 128.337 120.02 128.107 119.82 127.92L118.22 126.39C118.133 126.317 118.093 126.224 118.1 126.11C118.107 126.01 118.117 125.914 118.13 125.82C118.157 125.615 118.132 125.407 118.057 125.215C117.982 125.022 117.859 124.852 117.7 124.72C116.84 124.007 116.037 123.227 115.29 122.38C115.097 122.16 114.86 122.014 114.58 121.94C114.42 121.894 114.257 121.86 114.09 121.84C113.81 121.8 113.573 121.68 113.38 121.48L111.03 119.15C110.777 118.904 110.477 118.804 110.13 118.85C109.65 118.917 109.333 118.73 109.18 118.29C109.124 118.124 109.009 117.984 108.857 117.899C108.705 117.814 108.528 117.789 108.36 117.83C107.713 117.984 107.287 117.75 107.08 117.13C106.993 116.87 106.82 116.78 106.56 116.86C105.893 117.047 105.423 116.834 105.15 116.22C105.01 115.907 104.77 115.784 104.43 115.85C103.69 115.997 103.22 115.704 103.02 114.97C102.913 114.597 102.667 114.437 102.28 114.49C101.76 114.57 101.217 114.54 100.65 114.4C100.35 114.327 100.127 114.15 99.98 113.87C99.84 113.597 99.6266 113.4 99.34 113.28C99.1991 113.224 99.0474 113.199 98.8954 113.208C98.7434 113.217 98.5948 113.258 98.46 113.33C97.52 113.83 96.6666 113.717 95.9 112.99C95.68 112.784 95.4166 112.67 95.11 112.65L88.18 112.14C88.5133 106.714 88.3566 101.747 87.71 97.2402Z" fill="#FF8100"/>
<path d="M29.2503 102.81C31.9436 103.696 34.6503 103.883 37.3703 103.37C37.7636 103.296 38.4603 103.423 39.4603 103.75C39.847 103.876 40.0803 104.14 40.1603 104.54C40.2136 104.806 40.137 105.063 39.9303 105.31C39.8206 105.445 39.6646 105.537 39.4903 105.57C37.5703 105.95 35.3103 106.95 35.1903 109.21C35.137 110.09 35.027 111.013 34.8603 111.98C34.5736 113.62 34.437 115.273 34.4503 116.94C34.4503 117.273 34.3803 117.593 34.2403 117.9C34.0003 118.426 33.9303 118.963 34.0303 119.51C34.1036 119.883 34.327 120.073 34.7003 120.08L37.9703 120.16L37.6603 126.01C34.0603 125.196 32.7136 127.216 33.6203 132.07C33.767 132.87 33.827 133.696 33.8003 134.55C33.767 135.323 33.797 136.096 33.8903 136.87C34.4103 141.31 35.2503 145.683 36.4103 149.99C36.8036 151.456 37.3236 152.913 37.9703 154.36C38.5903 155.74 39.1203 157.19 39.5603 158.71C39.9536 160.07 40.5136 161.46 41.2403 162.88C41.387 163.173 41.6203 163.29 41.9403 163.23L45.1503 162.68L51.6703 174.02C51.197 174.773 50.5436 175.146 49.7103 175.14C49.217 175.14 48.9836 175.386 49.0103 175.88C49.037 176.326 49.2136 176.676 49.5403 176.93C49.6936 177.043 49.827 177.173 49.9403 177.32L56.6003 185.77L51.7403 186.25C51.4136 186.283 51.1603 186.163 50.9803 185.89C49.9936 184.363 48.8036 183.46 47.4103 183.18C42.477 176.913 38.9903 171.773 36.9503 167.76C34.597 163.146 32.027 156.613 29.2403 148.16C28.6136 146.253 28.327 144.27 28.3803 142.21C28.7336 129.176 29.0236 116.043 29.2503 102.81Z" fill="#DBDCE0"/>
<path d="M148.14 102.93C148.794 112.47 149.42 121.99 150.02 131.49C150.227 134.716 150.024 137.9 149.41 141.04C149.217 142.053 149.09 143.053 149.03 144.04C148.977 144.98 148.77 145.94 148.41 146.92C147.057 150.64 145.517 154.743 143.79 159.23C139.744 169.77 134.327 178.976 127.54 186.85L125.29 186.03C124.977 185.916 124.657 185.893 124.33 185.96C123.657 186.1 123.134 185.873 122.76 185.28C122.56 184.96 122.277 184.85 121.91 184.95C121.11 185.183 120.42 185.64 119.84 186.32L119.87 185.33C119.877 184.97 119.704 184.76 119.35 184.7C118.657 184.58 117.967 184.303 117.28 183.87C123.32 177.563 128.227 170.426 132 162.46L135.01 163.04C135.344 163.106 135.604 162.993 135.79 162.7C136.417 161.726 136.84 160.78 137.06 159.86C137.287 158.906 137.597 157.993 137.99 157.12C140.304 151.913 141.797 146.703 142.47 141.49C142.85 138.496 143.15 136.403 143.37 135.21C143.43 134.863 143.37 134.54 143.19 134.24C142.984 133.893 142.964 133.54 143.13 133.18C143.297 132.82 143.397 132.433 143.43 132.02C143.59 130.26 143.424 128.62 142.93 127.1C142.861 126.879 142.741 126.677 142.58 126.511C142.419 126.345 142.221 126.218 142.003 126.14C141.784 126.063 141.55 126.037 141.318 126.064C141.087 126.092 140.865 126.173 140.67 126.3C140.264 126.566 139.774 126.383 139.2 125.75L138.45 116.69C139.07 117.016 139.814 117.116 140.68 116.99C141.123 116.922 141.528 116.7 141.824 116.364C142.121 116.028 142.289 115.598 142.3 115.15C142.354 112.416 142.054 109.886 141.4 107.56C141.294 107.18 141.057 106.916 140.69 106.77L133.95 104.01C133.757 103.93 133.717 103.8 133.83 103.62C133.884 103.533 133.95 103.456 134.03 103.39C134.03 103.39 134.034 103.39 134.04 103.39L145.99 103.67C146.05 103.673 146.109 103.663 146.162 103.64C146.216 103.617 146.263 103.583 146.3 103.54C146.647 103.12 146.987 103.036 147.32 103.29C147.454 103.39 147.604 103.416 147.77 103.37C147.937 103.323 148.06 103.176 148.14 102.93Z" fill="#DBDCE0"/>
<path d="M174.53 129.32C170.4 132.32 166 134.4 161.14 135.76C160.713 135.88 160.5 135.717 160.5 135.27V125.42C160.5 125.223 160.563 125.031 160.68 124.873C160.797 124.714 160.962 124.598 161.15 124.54C168.18 122.43 174.25 118.42 177.57 111.7C177.636 111.565 177.738 111.451 177.865 111.372C177.993 111.292 178.14 111.25 178.29 111.25H188.75C189.083 111.25 189.25 111.417 189.25 111.75V161.5C189.25 161.833 189.083 162 188.75 162H175.75C175.417 162 175.25 161.833 175.25 161.5V129.69C175.25 129.09 175.01 128.967 174.53 129.32Z" fill="#FF8100"/>
<path d="M202.06 128.41C203.9 115.63 211.75 110.67 224.3 111.28C235.49 111.83 240.83 118.73 242.24 129.44C243.41 138.44 243.24 152.77 235.67 158.91C230.89 162.8 223.05 163.32 217.12 162.38C209.44 161.17 204.47 155.9 202.8 148.48C201.327 141.94 201.08 135.25 202.06 128.41ZM216.59 148.83C217.51 151.53 219.213 153.01 221.7 153.27C226.15 153.73 228.18 149.02 228.58 145.46C229.307 138.954 229.207 132.86 228.28 127.18C226.9 118.66 217.53 117.85 215.99 126.6C215.517 129.314 215.263 132.14 215.23 135.08C215.19 139.59 215.16 144.61 216.59 148.83Z" fill="#FF8100"/>
<path d="M246 128.92C246.88 122.12 249.5 115.74 256.24 113.11C261.206 111.17 266.426 110.72 271.9 111.76C279.12 113.14 283.626 117.704 285.42 125.45C287.333 133.71 287.22 141.947 285.08 150.16C282.14 161.48 271.38 163.93 261.26 162.41C253.55 161.25 248.6 156.09 246.83 148.58C245.376 142.407 245.1 135.854 246 128.92ZM259.39 142.3C259.61 146.48 260.54 152.6 265.54 153.25C270.82 153.94 272.45 147.82 272.76 143.92C273.28 137.46 273.093 131.754 272.2 126.8C270.72 118.57 261.5 118.1 260.01 126.53C259.1 131.74 259.11 137.03 259.39 142.3Z" fill="#FF8100"/>
<path d="M316.906 125.46C316.922 128.606 315.689 131.629 313.476 133.864C311.264 136.1 308.254 137.366 305.108 137.382L302.048 137.398C298.903 137.415 295.88 136.181 293.644 133.968C291.408 131.756 290.143 128.746 290.126 125.6L290.114 123.3C290.098 120.155 291.332 117.132 293.544 114.896C295.757 112.66 298.767 111.395 301.912 111.378L304.972 111.362C308.118 111.346 311.141 112.58 313.376 114.792C315.612 117.005 316.878 120.015 316.894 123.16L316.906 125.46ZM303.5 131.97C304.047 131.97 304.587 131.773 305.092 131.391C305.597 131.009 306.055 130.448 306.442 129.741C306.828 129.035 307.135 128.196 307.344 127.272C307.553 126.349 307.66 125.36 307.66 124.36C307.66 123.361 307.553 122.371 307.344 121.448C307.135 120.525 306.828 119.686 306.442 118.979C306.055 118.273 305.597 117.712 305.092 117.33C304.587 116.947 304.047 116.75 303.5 116.75C302.397 116.75 301.339 117.552 300.559 118.979C299.779 120.406 299.34 122.342 299.34 124.36C299.34 126.379 299.779 128.314 300.559 129.741C301.339 131.169 302.397 131.97 303.5 131.97Z" fill="#FF8100"/>
<path d="M303.88 164.08L332.29 111.43C332.315 111.382 332.353 111.342 332.399 111.314C332.444 111.286 332.497 111.271 332.55 111.27L338.99 111.22C339.044 111.218 339.097 111.231 339.144 111.256C339.191 111.282 339.23 111.319 339.258 111.365C339.285 111.411 339.3 111.464 339.301 111.517C339.301 111.571 339.287 111.624 339.26 111.67L310.83 164.33C310.805 164.377 310.768 164.417 310.722 164.445C310.677 164.474 310.624 164.489 310.57 164.49L304.15 164.52C304.098 164.521 304.047 164.508 304.001 164.483C303.956 164.458 303.917 164.421 303.89 164.377C303.863 164.332 303.848 164.282 303.846 164.23C303.844 164.178 303.856 164.126 303.88 164.08Z" fill="#FF8100"/>
<path d="M88.1804 112.14L95.1104 112.65C95.4171 112.67 95.6804 112.783 95.9004 112.99C96.6671 113.716 97.5204 113.83 98.4604 113.33C98.5952 113.258 98.7438 113.216 98.8958 113.207C99.0478 113.199 99.1996 113.223 99.3404 113.28C99.6271 113.4 99.8404 113.596 99.9804 113.87C100.127 114.15 100.35 114.326 100.65 114.4C101.217 114.54 101.76 114.57 102.28 114.49C102.667 114.436 102.914 114.596 103.02 114.97C103.22 115.703 103.69 115.996 104.43 115.85C104.77 115.783 105.01 115.906 105.15 116.22C105.424 116.833 105.894 117.046 106.56 116.86C106.82 116.78 106.994 116.87 107.08 117.13C107.287 117.75 107.714 117.983 108.36 117.83C108.528 117.789 108.706 117.813 108.858 117.899C109.01 117.984 109.125 118.123 109.18 118.29C109.334 118.73 109.65 118.916 110.13 118.85C110.477 118.803 110.777 118.903 111.03 119.15L113.38 121.48C113.574 121.68 113.81 121.8 114.09 121.84C114.257 121.86 114.42 121.893 114.58 121.94C114.86 122.013 115.097 122.16 115.29 122.38C116.037 123.226 116.84 124.006 117.7 124.72C117.859 124.852 117.982 125.022 118.057 125.214C118.133 125.407 118.158 125.615 118.13 125.82C118.117 125.913 118.107 126.01 118.1 126.11C118.094 126.223 118.134 126.316 118.22 126.39L119.82 127.92C120.02 128.106 120.127 128.336 120.14 128.61C120.18 129.336 120.54 129.92 121.22 130.36C121.614 130.613 121.927 130.943 122.16 131.35L124.44 135.24C124.659 135.618 124.727 136.065 124.63 136.49C124.41 137.436 124.614 138.213 125.24 138.82C125.474 139.053 125.604 139.33 125.63 139.65C125.777 141.243 125.657 142.78 125.27 144.26L117.15 144.22L110.74 143.74L110.71 129.46C110.708 129.341 110.66 129.228 110.576 129.144C110.492 129.06 110.379 129.012 110.26 129.01L105.46 128.99C105.147 128.983 104.99 129.136 104.99 129.45L104.98 143.68L100.1 144.11C96.9704 140.7 91.9404 140.05 87.8204 138.88C88.7271 136.733 88.6838 134.903 87.6904 133.39C91.9038 132.656 94.3438 133.883 95.0104 137.07C95.0771 137.383 95.2704 137.526 95.5904 137.5L99.9804 137.15C100.334 137.123 100.487 136.936 100.44 136.59C99.9271 132.823 98.0138 130.32 94.7004 129.08C92.7804 128.366 90.6871 128.113 88.4204 128.32L88.1404 114.71C88.3271 113.61 88.3404 112.753 88.1804 112.14Z" fill="#FF8100" fill-opacity="0.996"/>
<path d="M88.1396 114.71L88.4196 128.32C81.7396 128.94 78.7663 132.256 79.4996 138.27C79.7463 140.283 81.4396 142.12 84.5796 143.78C81.7796 144.533 78.6696 144.69 75.2496 144.25C73.9029 142.91 72.7796 142.023 71.8796 141.59C69.0796 140.26 64.5496 140.02 61.2196 138.18C60.2129 137.626 59.7929 136.736 59.9596 135.51C60.0063 135.15 60.1663 134.85 60.4396 134.61C61.7329 133.443 63.5563 132.976 65.9096 133.21C68.1363 133.43 69.5429 134.756 70.1296 137.19C70.1525 137.274 70.2037 137.348 70.2748 137.399C70.3458 137.45 70.4323 137.475 70.5196 137.47L75.2396 137.09C75.3929 137.076 75.4629 136.993 75.4496 136.84C74.5896 127.91 65.1496 127.02 58.3496 129.46C59.9763 127.353 61.7196 125.37 63.5796 123.51C64.1863 122.903 64.8696 122.386 65.6296 121.96C66.3763 121.54 67.1063 121.09 67.8196 120.61C70.4263 118.856 73.3563 117.403 76.6096 116.25C77.4896 115.943 78.2996 115.756 79.0396 115.69C79.8463 115.623 80.6396 115.493 81.4196 115.3C83.6729 114.74 85.9129 114.543 88.1396 114.71Z" fill="#FFC300"/>
<path d="M37.6603 126.01C37.4203 132.043 37.8403 138.1 38.9203 144.18C40.2603 150.653 42.337 156.82 45.1503 162.68L41.9403 163.23C41.6203 163.29 41.387 163.173 41.2403 162.88C40.5136 161.46 39.9536 160.07 39.5603 158.71C39.1203 157.19 38.5903 155.74 37.9703 154.36C37.3236 152.913 36.8036 151.457 36.4103 149.99C35.2503 145.683 34.4103 141.31 33.8903 136.87C33.797 136.097 33.767 135.323 33.8003 134.55C33.827 133.697 33.767 132.87 33.6203 132.07C32.7136 127.217 34.0603 125.197 37.6603 126.01Z" fill="#DBDCE0"/>
<path d="M139.2 125.75C139.773 126.383 140.263 126.567 140.67 126.3C140.865 126.173 141.087 126.092 141.318 126.065C141.549 126.037 141.783 126.063 142.002 126.14C142.221 126.218 142.419 126.345 142.58 126.511C142.741 126.678 142.861 126.879 142.93 127.1C143.423 128.62 143.59 130.26 143.43 132.02C143.397 132.433 143.297 132.82 143.13 133.18C142.963 133.54 142.983 133.893 143.19 134.24C143.37 134.54 143.43 134.863 143.37 135.21C143.15 136.403 142.85 138.497 142.47 141.49C141.797 146.703 140.303 151.913 137.99 157.12C137.597 157.993 137.287 158.907 137.06 159.86C136.84 160.78 136.417 161.727 135.79 162.7C135.603 162.993 135.343 163.107 135.01 163.04L132 162.46C134.287 157.533 136.083 152.473 137.39 147.28C139.003 140.273 139.607 133.097 139.2 125.75Z" fill="#DBDCE0"/>
<path d="M75.25 144.25C77.15 148.79 76.77 152.36 74.11 154.96C69.65 159.31 59.84 159.07 55.7 154.2C54.4533 152.486 53.6733 150.536 53.36 148.35C53.3333 148.19 53.4033 148.1 53.57 148.08L58.53 147.55C58.7433 147.53 58.8567 147.63 58.87 147.85C58.9633 149.343 59.34 150.323 60 150.79C62.06 153.94 69.8 154.02 70.64 149.88C71.0467 147.906 70.2167 146.653 68.15 146.12C65.1167 145.333 62.1133 144.456 59.14 143.49C57.5133 142.656 56.1033 141.376 54.91 139.65C53.55 135.296 54.6967 131.9 58.35 129.46C65.15 127.02 74.59 127.91 75.45 136.84C75.4633 136.993 75.3933 137.076 75.24 137.09L70.52 137.47C70.4327 137.475 70.3462 137.45 70.2752 137.399C70.2041 137.348 70.1529 137.274 70.13 137.19C69.5433 134.756 68.1367 133.43 65.91 133.21C63.5567 132.976 61.7333 133.443 60.44 134.61C60.1667 134.85 60.0067 135.15 59.96 135.51C59.7933 136.736 60.2133 137.626 61.22 138.18C64.55 140.02 69.08 140.26 71.88 141.59C72.78 142.023 73.9033 142.91 75.25 144.25Z" fill="#5E5D5D"/>
<path d="M88.4204 128.32C90.6871 128.113 92.7804 128.366 94.7004 129.08C98.0138 130.32 99.9271 132.823 100.44 136.59C100.487 136.936 100.334 137.123 99.9804 137.15L95.5904 137.5C95.2704 137.526 95.0771 137.383 95.0104 137.07C94.3438 133.883 91.9038 132.656 87.6904 133.39C83.8004 134.37 84.1304 137.93 87.8204 138.88C91.9404 140.05 96.9704 140.7 100.1 144.11C104.69 154.06 96.6304 158.77 87.9004 157.91C82.3671 157.156 79.1671 153.936 78.3004 148.25C78.2738 148.09 78.3438 148.003 78.5104 147.99L83.6004 147.58C83.7538 147.566 83.8371 147.636 83.8504 147.79C84.1504 150.536 85.5738 152.186 88.1204 152.74C91.1504 153.54 95.3204 152.85 95.8004 149.35C96.2704 145.93 89.5604 145.04 87.6004 144.76L84.5804 143.78C81.4404 142.12 79.7471 140.283 79.5004 138.27C78.7671 132.256 81.7404 128.94 88.4204 128.32Z" fill="#5E5D5D"/>
<path d="M110.74 143.74L110.79 152.2C110.79 152.547 110.96 152.72 111.3 152.72L118.73 152.75L124.76 152.8C124.877 152.8 124.989 152.847 125.072 152.929C125.154 153.012 125.2 153.124 125.2 153.24V157.06C125.194 157.307 125.07 157.43 124.83 157.43L114.11 157.47L105.48 157.4C105.416 157.4 105.352 157.388 105.293 157.363C105.234 157.339 105.179 157.302 105.134 157.257C105.088 157.211 105.052 157.157 105.028 157.098C105.003 157.039 104.99 156.975 104.99 156.91L104.98 143.68L104.99 129.45C104.99 129.137 105.147 128.984 105.46 128.99L110.26 129.01C110.379 129.013 110.492 129.061 110.576 129.145C110.66 129.229 110.708 129.342 110.71 129.46L110.74 143.74Z" fill="#5E5D5D"/>
<path d="M87.6903 133.39C88.6836 134.903 88.7269 136.733 87.8203 138.88C84.1303 137.93 83.8003 134.37 87.6903 133.39Z" fill="#FF8100"/>
<path d="M352.906 152.35C352.914 153.923 352.612 155.483 352.018 156.939C351.423 158.396 350.548 159.721 349.441 160.839C348.335 161.958 347.019 162.847 345.568 163.457C344.118 164.066 342.562 164.384 340.989 164.393L338.149 164.408C336.575 164.416 335.016 164.114 333.559 163.52C332.103 162.925 330.778 162.05 329.659 160.943C328.541 159.836 327.652 158.52 327.042 157.07C326.432 155.62 326.114 154.064 326.106 152.49L326.094 150.15C326.086 148.577 326.387 147.018 326.982 145.561C327.576 144.105 328.452 142.779 329.558 141.661C330.665 140.543 331.981 139.653 333.431 139.044C334.882 138.434 336.438 138.116 338.011 138.108L340.851 138.093C342.424 138.085 343.984 138.386 345.44 138.981C346.897 139.575 348.222 140.451 349.34 141.557C350.459 142.664 351.348 143.98 351.958 145.43C352.567 146.881 352.885 148.437 352.894 150.01L352.906 152.35ZM339.5 158.99C340.603 158.99 341.661 158.175 342.441 156.723C343.222 155.272 343.66 153.303 343.66 151.25C343.66 149.197 343.222 147.229 342.441 145.777C341.661 144.326 340.603 143.51 339.5 143.51C338.954 143.51 338.413 143.71 337.908 144.099C337.403 144.488 336.945 145.059 336.558 145.777C336.172 146.496 335.866 147.349 335.656 148.288C335.447 149.227 335.34 150.234 335.34 151.25C335.34 152.267 335.447 153.273 335.656 154.212C335.866 155.151 336.172 156.005 336.558 156.723C336.945 157.442 337.403 158.012 337.908 158.401C338.413 158.79 338.954 158.99 339.5 158.99Z" fill="#FF8100"/>
<path d="M54.9098 139.65C56.1031 141.377 57.5131 142.657 59.1398 143.49C58.9131 144.137 58.4964 144.427 57.8898 144.36L53.6598 144.25C53.5464 141.797 53.9631 140.264 54.9098 139.65Z" fill="#FFC300"/>
<path d="M59.1396 143.49C62.113 144.457 65.1163 145.334 68.1497 146.12C70.2163 146.654 71.0463 147.907 70.6396 149.88C69.7996 154.02 62.0596 153.94 59.9996 150.79C60.2796 150.724 60.5696 150.42 60.8696 149.88C61.1163 149.427 61.1363 149.02 60.9296 148.66C60.783 148.4 60.5596 148.297 60.2596 148.35C59.8596 148.41 59.633 148.24 59.5797 147.84C59.5063 147.24 59.6763 146.764 60.0896 146.41C60.3963 146.15 60.4296 145.864 60.1896 145.55C59.743 144.97 58.9763 144.574 57.8896 144.36C58.4963 144.427 58.913 144.137 59.1396 143.49Z" fill="#F99607" fill-opacity="0.996"/>
<path d="M84.5796 143.78L87.5996 144.76L88.1196 152.74C85.573 152.187 84.1496 150.537 83.8496 147.79C83.8363 147.637 83.753 147.567 83.5996 147.58L78.5096 147.99C78.343 148.004 78.273 148.09 78.2996 148.25C79.1663 153.937 82.3663 157.157 87.8996 157.91L88.2196 169.21L88.2596 175.69L82.8796 175.27C82.6196 175.25 82.393 175.154 82.1996 174.98C81.473 174.32 80.5796 174.15 79.5196 174.47C78.913 174.657 78.4063 174.524 77.9996 174.07C77.8246 173.869 77.5853 173.732 77.3196 173.68L75.4296 173.32C75.263 173.287 75.1163 173.207 74.9896 173.08C74.3896 172.494 73.623 172.27 72.6896 172.41C72.5551 172.429 72.4186 172.414 72.2928 172.367C72.167 172.319 72.0558 172.242 71.9696 172.14C71.723 171.847 71.4196 171.747 71.0596 171.84C70.6263 171.954 70.3296 171.8 70.1696 171.38C70.0096 170.96 69.703 170.787 69.2496 170.86C68.8296 170.927 68.4963 170.787 68.2496 170.44C67.763 169.767 67.1196 169.33 66.3196 169.13C65.953 169.03 65.6396 168.84 65.3796 168.56C63.1063 166.094 60.6863 163.62 58.1196 161.14C57.2896 160.34 57.0596 159.34 56.5796 158.31C56.553 158.25 56.2096 157.79 55.5496 156.93C54.9896 156.21 55.0396 155.3 55.6996 154.2C59.8396 159.07 69.6496 159.31 74.1096 154.96C76.7696 152.36 77.1496 148.79 75.2496 144.25C78.6696 144.69 81.7796 144.534 84.5796 143.78Z" fill="#FF8100" fill-opacity="0.996"/>
<path d="M104.98 143.68L104.99 156.91C104.99 156.974 105.003 157.038 105.028 157.097C105.052 157.157 105.088 157.211 105.134 157.256C105.179 157.302 105.233 157.338 105.293 157.362C105.352 157.387 105.416 157.4 105.48 157.4L114.11 157.47C112.39 160.63 110.264 163.043 107.73 164.71C104.084 167.103 99.8604 168.83 95.0604 169.89C93.6404 170.203 91.9904 170.266 90.1104 170.08C90.0945 170.08 90.0792 170.072 90.068 170.059C90.0567 170.046 90.0504 170.028 90.0504 170.01C90.0771 169.776 89.9771 169.67 89.7504 169.69C89.6171 169.703 89.5304 169.773 89.4904 169.9C89.4571 170.033 89.3804 170.093 89.2604 170.08C89.0737 170.06 88.9637 169.956 88.9304 169.77C88.8304 169.216 88.5937 169.03 88.2204 169.21L87.9004 157.91C96.6304 158.77 104.69 154.06 100.1 144.11L104.98 143.68Z" fill="#FFC300"/>
<path d="M110.74 143.74L117.15 144.22C117.564 144.474 118.07 144.664 118.67 144.79C119.13 144.89 119.214 145.124 118.92 145.49C118.38 146.177 118.327 146.974 118.76 147.88C118.843 148.062 118.882 148.26 118.871 148.459C118.861 148.657 118.802 148.85 118.7 149.02C117.914 150.314 117.924 151.557 118.73 152.75L111.3 152.72C110.96 152.72 110.79 152.547 110.79 152.2L110.74 143.74Z" fill="#FFC300"/>
<path d="M53.6599 144.25L57.8899 144.36C58.9766 144.573 59.7433 144.97 60.1899 145.55C60.4299 145.863 60.3966 146.15 60.0899 146.41C59.6766 146.763 59.5066 147.24 59.5799 147.84C59.6333 148.24 59.8599 148.41 60.2599 148.35C60.5599 148.296 60.7833 148.4 60.9299 148.66C61.1366 149.02 61.1166 149.426 60.8699 149.88C60.5699 150.42 60.2799 150.723 59.9999 150.79C59.3399 150.323 58.9633 149.343 58.8699 147.85C58.8566 147.63 58.7433 147.53 58.5299 147.55L53.5699 148.08C53.4033 148.1 53.3333 148.19 53.3599 148.35C53.6733 150.536 54.4533 152.486 55.6999 154.2C55.0399 155.3 54.9899 156.21 55.5499 156.93C56.2099 157.79 56.5533 158.25 56.5799 158.31C57.0599 159.34 57.2899 160.34 58.1199 161.14C60.6866 163.62 63.1066 166.093 65.3799 168.56C65.6399 168.84 65.9533 169.03 66.3199 169.13C67.1199 169.33 67.7633 169.766 68.2499 170.44C68.4966 170.786 68.8299 170.926 69.2499 170.86C69.7033 170.786 70.0099 170.96 70.1699 171.38C70.3299 171.8 70.6266 171.953 71.0599 171.84C71.4199 171.746 71.7233 171.846 71.9699 172.14C72.0561 172.241 72.1672 172.319 72.2931 172.366C72.4189 172.413 72.5554 172.428 72.6899 172.41C73.6233 172.27 74.3899 172.493 74.9899 173.08C75.1166 173.206 75.2633 173.286 75.4299 173.32L77.3199 173.68C77.5856 173.731 77.8249 173.869 77.9999 174.07C78.4066 174.523 78.9133 174.656 79.5199 174.47C80.5799 174.15 81.4733 174.32 82.1999 174.98C82.3933 175.153 82.6199 175.25 82.8799 175.27L88.2599 175.69L88.3999 205.64C73.5266 197.813 61.2833 187.273 51.6699 174.02L45.1499 162.68C42.3366 156.82 40.2599 150.653 38.9199 144.18L53.6599 144.25Z" fill="#FF8100"/>
<path d="M125.27 144.26L136.47 144.32C136.796 144.32 136.983 144.48 137.03 144.8L137.39 147.28C136.083 152.473 134.286 157.533 132 162.46C128.226 170.426 123.32 177.563 117.28 183.87C108.886 192.923 99.2597 200.18 88.3997 205.64L88.2597 175.69L88.2197 169.21C88.5931 169.03 88.8297 169.216 88.9297 169.77C88.9631 169.956 89.0731 170.06 89.2597 170.08C89.3797 170.093 89.4564 170.033 89.4897 169.9C89.5297 169.773 89.6164 169.703 89.7497 169.69C89.9764 169.67 90.0764 169.776 90.0497 170.01C90.0497 170.028 90.056 170.046 90.0673 170.059C90.0786 170.072 90.0938 170.08 90.1097 170.08C91.9897 170.266 93.6397 170.203 95.0597 169.89C99.8597 168.83 104.083 167.103 107.73 164.71C110.263 163.043 112.39 160.63 114.11 157.47L124.83 157.43C125.07 157.43 125.193 157.306 125.2 157.06V153.24C125.2 153.123 125.153 153.011 125.071 152.929C124.988 152.846 124.876 152.8 124.76 152.8L118.73 152.75C117.923 151.556 117.913 150.313 118.7 149.02C118.801 148.85 118.86 148.657 118.871 148.458C118.881 148.26 118.843 148.061 118.76 147.88C118.326 146.973 118.38 146.176 118.92 145.49C119.213 145.123 119.13 144.89 118.67 144.79C118.07 144.663 117.563 144.473 117.15 144.22L125.27 144.26Z" fill="#FFC300"/>
<path d="M87.5996 144.76C89.5596 145.04 96.2696 145.93 95.7996 149.35C95.3196 152.85 91.1496 153.54 88.1196 152.74L87.5996 144.76Z" fill="#FFC300"/>
<path d="M193.55 202.57C198.85 201.63 200.28 194.38 194.91 192.32C191.42 190.97 187.07 190.36 184.22 188.04C180.24 184.79 180.28 178.5 183.91 174.98C187.22 171.75 193.19 171.79 196.87 174.26C199.196 175.813 200.486 178.36 200.74 181.9C200.753 182.066 200.676 182.163 200.51 182.19L197.96 182.55C197.673 182.596 197.513 182.473 197.48 182.18C197.066 178.7 195.363 176.753 192.37 176.34C190.15 176.04 187.42 176.3 185.87 178.1C182.98 181.48 185.43 185.05 189.19 185.93C196.14 187.56 203.17 189.67 201.48 198.81C200.43 204.53 195.02 207.18 189.54 206.4C184.04 205.606 180.926 202.15 180.2 196.03C180.153 195.61 180.333 195.366 180.74 195.3L182.72 194.97C183.273 194.876 183.573 195.11 183.62 195.67C184.01 201.03 188.54 203.46 193.55 202.57Z" fill="white"/>
<path d="M247.75 193H240.74C240.407 193 240.24 192.83 240.24 192.49L240.25 189.5C240.25 189.166 240.417 189 240.75 189H251.25C251.382 189 251.51 189.053 251.603 189.146C251.697 189.24 251.75 189.367 251.75 189.5V200.79C251.75 201.276 251.567 201.676 251.2 201.99C246.587 206.023 241.847 207.37 236.98 206.03C226.91 203.24 225.17 190.86 227.86 182.26C230.04 175.326 234.633 172.1 241.64 172.58C246.86 172.93 250.23 176.69 251.15 181.69C251.183 181.863 251.117 181.98 250.95 182.04L248.19 183C248.057 183.046 247.977 183.003 247.95 182.87C247.117 178.996 244.937 176.816 241.41 176.33C230.51 174.83 229.06 188.22 231.02 195.52C233.19 203.62 242.18 204.68 247.95 199.62C248.044 199.538 248.119 199.437 248.171 199.323C248.223 199.209 248.25 199.085 248.25 198.96V193.5C248.25 193.367 248.197 193.24 248.103 193.146C248.01 193.053 247.882 193 247.75 193Z" fill="white"/>
<path d="M207.99 177.34L208.01 186.41C208.01 186.5 208.046 186.587 208.11 186.65C208.173 186.714 208.26 186.75 208.35 186.75H222.91C223 186.75 223.087 186.786 223.15 186.85C223.214 186.913 223.25 187 223.25 187.09V190.41C223.25 190.5 223.214 190.587 223.15 190.65C223.087 190.714 223 190.75 222.91 190.75H208.34C208.25 190.75 208.163 190.786 208.1 190.85C208.036 190.913 208 191 208 191.09V201.66C208 201.75 208.036 201.837 208.1 201.9C208.163 201.964 208.25 202 208.34 202H224.43C224.52 202 224.607 202.036 224.67 202.1C224.734 202.163 224.77 202.25 224.77 202.34L224.75 205.66C224.75 205.75 224.714 205.837 224.65 205.9C224.587 205.964 224.5 206 224.41 206H204.84C204.75 206 204.663 205.964 204.6 205.9C204.536 205.837 204.5 205.75 204.5 205.66V173.34C204.5 173.295 204.509 173.251 204.526 173.21C204.543 173.169 204.568 173.131 204.6 173.1C204.631 173.068 204.669 173.043 204.71 173.026C204.751 173.009 204.795 173 204.84 173H223.92C223.965 173 224.009 173.009 224.05 173.026C224.091 173.043 224.129 173.068 224.16 173.1C224.192 173.131 224.217 173.169 224.234 173.21C224.251 173.251 224.26 173.295 224.26 173.34L224.25 176.66C224.25 176.75 224.214 176.837 224.15 176.9C224.087 176.964 224 177 223.91 177H208.33C208.24 177 208.153 177.036 208.09 177.1C208.026 177.163 207.99 177.25 207.99 177.34Z" fill="white"/>
<path d="M263.4 202.36C269.22 204.06 272.81 200.73 272.91 194.91C273.03 188.157 273.05 180.957 272.97 173.31C272.97 173.097 273.077 172.99 273.29 172.99L276.19 173.02C276.383 173.02 276.483 173.117 276.49 173.31C276.543 180.05 276.533 186.857 276.46 193.73C276.38 200.87 273.68 206.92 265.27 206.49C257.03 206.07 255.55 199.48 255.52 192.77C255.487 186.21 255.483 179.72 255.51 173.3C255.51 173.114 255.607 173.02 255.8 173.02L258.73 172.99C258.802 172.99 258.87 173.019 258.921 173.069C258.972 173.12 259 173.189 259 173.26C259 180.227 259.017 187.224 259.05 194.25C259.06 197.53 259.83 201.32 263.4 202.36Z" fill="white"/>
<path d="M295.61 191.17C298.443 194.024 300.933 198.027 303.08 203.18C303.173 203.407 303.34 203.55 303.58 203.61C303.84 203.67 304.01 203.574 304.09 203.32L313.31 173.62C313.437 173.207 313.717 173 314.15 173H316.77C317.33 173 317.697 173.264 317.87 173.79L328.33 205.44C328.457 205.814 328.323 206 327.93 206L324.95 205.99C324.577 205.99 324.337 205.814 324.23 205.46L321.53 196.55C321.423 196.184 321.177 196 320.79 196H310.29C309.963 196 309.753 196.16 309.66 196.48L307.05 205.44C306.943 205.814 306.693 206 306.3 206H300.76C300.407 206 300.147 205.844 299.98 205.53C298.04 201.89 295.933 198.117 293.66 194.21C291.56 190.61 288.53 191.21 285.05 191.23C284.904 191.23 284.764 191.288 284.661 191.392C284.558 191.495 284.5 191.635 284.5 191.78V205.5C284.5 205.834 284.333 206 284 206H281.5C281.167 206 281 205.834 281 205.5V173.53C281 173.164 281.183 172.98 281.55 172.98C285.617 173.007 289.847 173.017 294.24 173.01C304.67 172.99 305.54 188.63 295.76 190.67C295.4 190.744 295.35 190.91 295.61 191.17ZM284.5 177.34V186.88C284.5 186.976 284.538 187.068 284.605 187.135C284.673 187.203 284.765 187.24 284.86 187.24H293.77C295.162 187.24 296.498 186.721 297.482 185.797C298.467 184.872 299.02 183.618 299.02 182.31V181.91C299.02 180.603 298.467 179.349 297.482 178.424C296.498 177.5 295.162 176.98 293.77 176.98H284.86C284.765 176.98 284.673 177.018 284.605 177.086C284.538 177.153 284.5 177.245 284.5 177.34ZM311.03 191.8C310.89 192.274 311.063 192.507 311.55 192.5H319.71C320.063 192.5 320.187 192.334 320.08 192L315.59 177.54C315.53 177.347 315.47 177.347 315.41 177.54L311.03 191.8Z" fill="white"/>
<path d="M51.6699 174.02C61.2832 187.273 73.5265 197.813 88.3999 205.64C99.2599 200.18 108.887 192.923 117.28 183.87C117.967 184.303 118.657 184.58 119.35 184.7C119.703 184.76 119.877 184.97 119.87 185.33L119.84 186.32C110.953 195.946 100.79 203.71 89.3499 209.61C89.0603 209.761 88.7385 209.839 88.4125 209.837C88.0865 209.835 87.7663 209.754 87.4799 209.6C75.7732 203.306 65.4799 195.363 56.5999 185.77L49.9399 177.32C49.8265 177.173 49.6932 177.043 49.5399 176.93C49.2132 176.676 49.0365 176.326 49.0099 175.88C48.9832 175.386 49.2165 175.14 49.7099 175.14C50.5432 175.146 51.1965 174.773 51.6699 174.02Z" fill="#DBDCE0"/>
<path d="M56.6002 185.77C65.4802 195.363 75.7735 203.306 87.4802 209.6C87.7666 209.754 88.0868 209.836 88.4127 209.837C88.7387 209.839 89.0606 209.761 89.3502 209.61C100.79 203.71 110.953 195.946 119.84 186.32C120.42 185.64 121.11 185.183 121.91 184.95C122.277 184.85 122.56 184.96 122.76 185.28C123.133 185.873 123.657 186.1 124.33 185.96C124.657 185.893 124.977 185.916 125.29 186.03L127.54 186.85C123.987 190.896 119.83 194.966 115.07 199.06C107.237 205.8 99.5502 211.44 92.0102 215.98C90.8835 216.66 89.6935 216.953 88.4402 216.86C87.1068 216.753 85.9002 216.366 84.8202 215.7C81.9668 213.926 78.1868 211.35 73.4802 207.97C69.4602 205.08 65.8902 201.77 61.9802 198.73C60.5668 197.63 59.1435 196.266 57.7102 194.64C54.3502 190.846 50.9168 187.026 47.4102 183.18C48.8035 183.46 49.9935 184.363 50.9802 185.89C51.1602 186.163 51.4135 186.283 51.7402 186.25L56.6002 185.77Z" fill="#DBDCE0"/>
<path d="M33.2297 201.97L42.2997 211.09L42.2497 213.34L31.4297 202.52C31.9697 202.16 32.5697 201.976 33.2297 201.97Z" fill="#C97A09" fill-opacity="0.788"/>
</svg>
